<?xml version="1.0" standalone="no"?>
<!DOCTYPE svg PUBLIC "-//W3C//DTD SVG 20010904//EN"
 "http://www.w3.org/TR/2001/REC-SVG-20010904/DTD/svg10.dtd">
<svg version="1.0" xmlns="http://www.w3.org/2000/svg"
 width="143.000000pt" height="143.000000pt" viewBox="0 0 143.000000 143.000000"
 preserveAspectRatio="xMidYMid meet">
<metadata>
Created by potrace 1.14, written by Peter Selinger 2001-2017
</metadata>
<g transform="translate(0.000000,143.000000) scale(0.100000,-0.100000)"
fill="#000000" stroke="none">
<path d="M718 1218 c-93 -94 -168 -174 -168 -179 0 -5 -4 -9 -9 -9 -7 0 -457
-444 -489 -483 -8 -9 37 -12 211 -11 122 1 226 -1 230 -3 4 -3 -31 -42 -78
-88 -47 -47 -85 -89 -85 -95 0 -6 -3 -9 -7 -7 -5 2 -28 -16 -51 -40 l-44 -43
212 0 212 0 -96 -95 c-53 -53 -96 -98 -96 -100 0 -3 200 -5 445 -5 l445 0 1
25 c2 81 1 103 -5 113 -4 7 -4 12 1 12 10 0 8 133 -1 149 -4 6 -4 11 1 11 10
0 8 133 -1 149 -4 6 -4 11 1 11 10 0 8 133 -1 149 -4 6 -4 11 1 11 10 0 8 133
-1 149 -4 6 -4 11 1 11 4 0 7 15 6 32 -1 18 -2 43 -2 56 -1 20 -19 6 -107 -83
-58 -59 -108 -105 -110 -102 -3 3 -5 96 -4 207 l1 202 -37 -36 c-22 -21 -33
-40 -28 -47 4 -8 3 -9 -4 -5 -13 8 -132 -104 -132 -123 0 -6 -7 -11 -15 -11
-13 0 -15 32 -15 225 0 124 -3 225 -7 224 -5 -1 -83 -78 -175 -171z"/>
</g>
</svg>
